<svg width="403" height="242" viewBox="0 0 403 242" fill="none" xmlns="http://www.w3.org/2000/svg">
<path d="M140.98 99.4688H109.872C109.304 95.4441 108.144 91.8693 106.392 88.7443C104.64 85.572 102.391 82.8731 99.6449 80.6477C96.8987 78.4223 93.7263 76.7178 90.1278 75.5341C86.5767 74.3504 82.7178 73.7585 78.5511 73.7585C71.0227 73.7585 64.465 75.6288 58.8778 79.3693C53.2907 83.0625 48.9583 88.4602 45.8807 95.5625C42.803 102.617 41.2642 111.187 41.2642 121.273C41.2642 131.642 42.803 140.354 45.8807 147.409C49.0057 154.464 53.3617 159.791 58.9489 163.389C64.536 166.988 70.9991 168.787 78.3381 168.787C82.4574 168.787 86.2689 168.242 89.7727 167.153C93.3239 166.064 96.4725 164.478 99.2188 162.395C101.965 160.264 104.238 157.684 106.037 154.653C107.884 151.623 109.162 148.167 109.872 144.284L140.98 144.426C140.175 151.102 138.163 157.542 134.943 163.744C131.771 169.9 127.486 175.416 122.088 180.293C116.738 185.122 110.346 188.957 102.912 191.798C95.5256 194.592 87.1686 195.989 77.8409 195.989C64.8674 195.989 53.267 193.053 43.0398 187.182C32.8598 181.311 24.8106 172.812 18.892 161.685C13.0208 150.558 10.0852 137.087 10.0852 121.273C10.0852 105.411 13.0682 91.9167 19.0341 80.7898C25 69.6629 33.0966 61.1875 43.3239 55.3636C53.5511 49.4924 65.0568 46.5568 77.8409 46.5568C86.2689 46.5568 94.0814 47.7405 101.278 50.108C108.523 52.4754 114.938 55.9318 120.526 60.4773C126.113 64.9754 130.658 70.4915 134.162 77.0256C137.713 83.5597 139.986 91.0407 140.98 99.4688ZM163.033 194V48.5455H261.044V73.9006H193.786V108.56H256.001V133.915H193.786V168.645H261.328V194H163.033ZM285.494 194V48.5455H342.88C353.912 48.5455 363.311 50.6525 371.076 54.8665C378.841 59.0331 384.76 64.8333 388.832 72.267C392.951 79.6534 395.011 88.1761 395.011 97.8352C395.011 107.494 392.927 116.017 388.761 123.403C384.594 130.79 378.557 136.543 370.65 140.662C362.79 144.781 353.273 146.841 342.099 146.841H305.522V122.196H337.127C343.046 122.196 347.923 121.178 351.758 119.142C355.64 117.059 358.529 114.194 360.423 110.548C362.364 106.855 363.335 102.617 363.335 97.8352C363.335 93.0057 362.364 88.7917 360.423 85.1932C358.529 81.5473 355.64 78.7301 351.758 76.7415C347.875 74.7055 342.951 73.6875 336.985 73.6875H316.246V194H285.494Z" fill="#C4FF00"/>
</svg>
